Crispy Narrow Black-MinGrade-minXOPQ.ufo
<glyph name="zero" format="2">
  <advance width="206"/>
  <unicode hex="0030"/>
  <outline>
    <contour>
      <point x="49" y="0" type="line" identifier="4KX3b3mGg4"/>
      <point x="158" y="0" type="line" identifier="V2j8wYP0nr"/>
      <point x="158" y="1600" type="line" identifier="NaxGoenf3y"/>
      <point x="49" y="1600" type="line" identifier="rx6fJSLiri"/>
    </contour>
    <contour>
      <point x="51" y="163" type="line"/>
      <point x="51" y="1437" type="line"/>
      <point x="156" y="1437" type="line"/>
      <point x="156" y="163" type="line"/>
    </contour>
  </outline>
</glyph>
<glyph name="three" format="2">
  <advance width="188"/>
  <unicode hex="0033"/>
  <outline>
    <contour>
      <point x="38" y="0" type="line" identifier="O9abUc1nmN"/>
      <point x="144" y="0" type="line" identifier="kMJYMTfXCq"/>
      <point x="144" y="880" type="line" identifier="su2XmdS8e8"/>
      <point x="103" y="880" type="line" identifier="JQaOzDQqlF"/>
      <point x="130" y="1009" type="line"/>
      <point x="130" y="1600" type="line" identifier="xg8x2Ki40p"/>
      <point x="47" y="1600" type="line" identifier="pE1XSRiy68"/>
      <point x="47" y="1120" type="line" identifier="5lNstGRcSF"/>
      <point x="49" y="1120" type="line" identifier="AcE5xKDZfE"/>
      <point x="49" y="1437" type="line" identifier="7ogBYufWpl"/>
      <point x="128" y="1437" type="line" identifier="RHLvSX2Jv6"/>
      <point x="128" y="1009" type="line"/>
      <point x="101" y="880" type="line" identifier="iic1IBkDqp"/>
      <point x="56" y="879" type="line" identifier="lRLJEhXMlO"/>
      <point x="56" y="717" type="line" identifier="8aKgEELrVU"/>
      <point x="142" y="717" type="line" identifier="Dm8zjmbhNr"/>
      <point x="142" y="163" type="line" identifier="xv9CFHiFgB"/>
      <point x="40" y="163" type="line" identifier="YajKQV3MHP"/>
      <point x="40" y="425" type="line" identifier="36SchVkwze"/>
      <point x="38" y="425" type="line" identifier="tVui9PiOjA"/>
    </contour>
  </outline>
</glyph>
<glyph name="four" format="2">
  <advance width="161"/>
  <unicode hex="0034"/>
  <outline>
    <contour>
      <point x="107" y="0" type="line"/>
      <point x="109" y="0" type="line"/>
      <point x="109" y="713" type="line"/>
      <point x="139" y="713" type="line"/>
      <point x="139" y="875" type="line"/>
      <point x="109" y="875" type="line"/>
      <point x="109" y="1600" type="line"/>
      <point x="107" y="1600" type="line"/>
      <point x="107" y="875" type="line"/>
      <point x="22" y="875" type="line"/>
      <point x="22" y="943" type="line"/>
      <point x="46" y="1600" type="line"/>
      <point x="44" y="1600" type="line"/>
      <point x="20" y="942" type="line"/>
      <point x="20" y="713" type="line"/>
      <point x="107" y="713" type="line"/>
    </contour>
  </outline>
</glyph>
<glyph name="C" format="2">
  <advance width="189"/>
  <unicode hex="0043"/>
  <outline>
    <contour>
      <point x="36" y="0" type="line" identifier="7lPhzTnk2Z"/>
      <point x="145" y="0" type="line" identifier="qJVLZGnkwh"/>
      <point x="145" y="501" type="line" identifier="nDnDHzAMXL"/>
      <point x="143" y="501" type="line" identifier="QX1V08aTu0"/>
      <point x="143" y="163" type="line" identifier="Y750RHTvDj"/>
      <point x="38" y="163" type="line" identifier="L2LsGnXiZ2"/>
      <point x="38" y="1317" type="line" identifier="sUWsr03vF4"/>
      <point x="62" y="1437" type="line" identifier="dbOUe6OhxL"/>
      <point x="140" y="1437" type="line" identifier="5BjRbcud80"/>
      <point x="140" y="1100" type="line" identifier="fNVDqwQo2o"/>
      <point x="142" y="1100" type="line" identifier="wLqQQx7QVN"/>
      <point x="142" y="1600" type="line" identifier="9eJelv8BOw"/>
      <point x="71" y="1600" type="line" identifier="lfZev3ICaC"/>
      <point x="36" y="1318" type="line" identifier="V1EWIdPahq"/>
    </contour>
  </outline>
</glyph>
<glyph name="P" format="2">
  <advance width="186"/>
  <unicode hex="0050"/>
  <outline>
    <contour>
      <point x="49" y="0" type="line" identifier="EG08jqU5fb"/>
      <point x="51" y="0" type="line" identifier="osRzIFK2Cu"/>
      <point x="51" y="599" type="line" identifier="hIFVovVRwe"/>
      <point x="151" y="599" type="line" identifier="Tt6D8zYZmU"/>
      <point x="151" y="1600" type="line" identifier="6xW04auDFu"/>
      <point x="49" y="1600" type="line" identifier="eETO5GBD5v"/>
    </contour>
    <contour>
      <point x="51" y="762" type="line" identifier="PIBVN1PGv1"/>
      <point x="51" y="1437" type="line" identifier="IZIZQr2gYJ"/>
      <point x="149" y="1437" type="line" identifier="2c4LCF1E1R"/>
      <point x="149" y="762" type="line" identifier="1WCnzth1GX"/>
    </contour>
  </outline>
</glyph>
<glyph name="S" format="2">
  <advance width="175"/>
  <unicode hex="0053"/>
  <outline>
    <contour>
      <point x="36" y="0" type="line" identifier="09VlJ0BjUX"/>
      <point x="106" y="0" type="line" identifier="EagWihqFM8"/>
      <point x="141" y="268" type="line"/>
      <point x="141" y="887" type="line" identifier="KfNuQA7eZe"/>
      <point x="37" y="887" type="line" identifier="At364YZFEy"/>
      <point x="37" y="1312" type="line"/>
      <point x="62" y="1446" type="line"/>
      <point x="126" y="1446" type="line" identifier="3ZUkG35meB"/>
      <point x="126" y="1137" type="line" identifier="DTOJhFIl15"/>
      <point x="128" y="1137" type="line" identifier="9KDcrfQ5Ui"/>
      <point x="128" y="1600" type="line" identifier="SaF9ojRFrW"/>
      <point x="69" y="1600" type="line"/>
      <point x="35" y="1313" type="line"/>
      <point x="35" y="715" type="line" identifier="3sQ8t8BZ6b"/>
      <point x="139" y="715" type="line" identifier="yiV6OCBLHg"/>
      <point x="139" y="269" type="line"/>
      <point x="115" y="157" type="line" identifier="9kdl9SYsn8"/>
      <point x="38" y="157" type="line" identifier="yZDWuX8LLe"/>
      <point x="38" y="470" type="line" identifier="jYb9001DTm"/>
      <point x="36" y="470" type="line" identifier="ho4DrS0rdW"/>
    </contour>
  </outline>
</glyph>
<glyph name="braceleft" format="2">
  <advance width="160"/>
  <unicode hex="007B"/>
  <outline>
    <contour>
      <point x="57" y="844" type="line"/>
      <point x="57" y="1505" type="line"/>
      <point x="148" y="1505" type="line"/>
      <point x="148" y="1668" type="line"/>
      <point x="55" y="1668" type="line"/>
      <point x="55" y="845" type="line"/>
      <point x="23" y="801" type="line"/>
      <point x="23" y="799" type="line"/>
      <point x="55" y="755" type="line"/>
      <point x="55" y="-68" type="line"/>
      <point x="143" y="-68" type="line"/>
      <point x="143" y="95" type="line"/>
      <point x="57" y="95" type="line"/>
      <point x="57" y="756" type="line"/>
      <point x="25" y="799" type="line"/>
      <point x="25" y="801" type="line"/>
    </contour>
  </outline>
</glyph>
<glyph name="F.wide" format="2">
  <advance width="164"/>
  <outline>
    <contour>
      <point x="49" y="0" type="line" identifier="oAgH2tA6DJ"/>
      <point x="51" y="0" type="line" identifier="zCZyMcW5ho"/>
      <point x="51" y="712" type="line" identifier="yHYqkMd7LI"/>
      <point x="123" y="712" type="line" identifier="NmB7yyQuio"/>
      <point x="123" y="874" type="line" identifier="wQk2C8zPHh"/>
      <point x="51" y="874" type="line" identifier="4cFHKQfHDt"/>
      <point x="51" y="1437" type="line" identifier="ZvzwyrcwpS"/>
      <point x="129" y="1437" type="line" identifier="4E754ovOIe"/>
      <point x="129" y="1600" type="line" identifier="NUrIjqOB7J"/>
      <point x="49" y="1600" type="line" identifier="TBAYuCfUFX"/>
    </contour>
  </outline>
</glyph>
<glyph name="G.wide" format="2">
  <advance width="174"/>
  <outline>
    <contour>
      <point x="36" y="0" type="line" identifier="7lPhzTnk2Z"/>
      <point x="143" y="0" type="line" identifier="qJVLZGnkwh"/>
      <point x="143" y="937" type="line" identifier="uek1NNj7De"/>
      <point x="82" y="937" type="line" identifier="qcvimxjndX"/>
      <point x="82" y="774" type="line" identifier="EARaY3Su65"/>
      <point x="141" y="774" type="line" identifier="4m6dHLVhZq"/>
      <point x="141" y="163" type="line" identifier="Y750RHTvDj"/>
      <point x="38" y="163" type="line" identifier="L2LsGnXiZ2"/>
      <point x="38" y="1208" type="line" identifier="sUWsr03vF4"/>
      <point x="71" y="1437" type="line" identifier="dbOUe6OhxL"/>
      <point x="142" y="1437" type="line" identifier="5BjRbcud80"/>
      <point x="142" y="1600" type="line" identifier="9eJelv8BOw"/>
      <point x="82" y="1600" type="line" identifier="lfZev3ICaC"/>
      <point x="36" y="1209" type="line" identifier="V1EWIdPahq"/>
    </contour>
  </outline>
</glyph>
<glyph name="L.wide" format="2">
  <advance width="162"/>
  <outline>
    <contour>
      <point x="49" y="0" type="line" identifier="XkJNfQlnnt"/>
      <point x="135" y="0" type="line" identifier="82EXZEgt46"/>
      <point x="135" y="163" type="line" identifier="cqpSxwFiM3"/>
      <point x="51" y="163" type="line" identifier="MbxRZRd8vz"/>
      <point x="51" y="1600" type="line" identifier="lYiaKSKITt"/>
      <point x="49" y="1600" type="line" identifier="XFf4mMUzYo"/>
    </contour>
  </outline>
</glyph>
<glyph name="M.narrow" format="2">
  <advance width="270"/>
  <outline>
    <contour>
      <point x="232" y="0" type="line" smooth="yes" identifier="12Pyby1xY2"/>
      <point x="234" y="0" type="line" smooth="yes" identifier="5LJg4ajoG6"/>
      <point x="234" y="1600" type="line" smooth="yes" identifier="ZqTZqAY3uY"/>
      <point x="65" y="1600" type="line" smooth="yes" identifier="R4lklfJsHA"/>
      <point x="30" y="1318" type="line" smooth="yes" identifier="7g7f8Wu7K4"/>
      <point x="30" y="0" type="line" smooth="yes" identifier="RTOJW56qXy"/>
      <point x="32" y="0" type="line" identifier="JfSFAkWGZC"/>
      <point x="32" y="1318" type="line" smooth="yes" identifier="WWvGwSpq0g"/>
      <point x="56" y="1437" type="line" smooth="yes" identifier="oee4nqI8Wl"/>
      <point x="131" y="1437" type="line" identifier="Ljn2lpvpG8"/>
      <point x="131" y="0" type="line" smooth="yes"/>
      <point x="133" y="0" type="line"/>
      <point x="133" y="1437" type="line" identifier="GlWB6PG54Z"/>
      <point x="232" y="1437" type="line" identifier="iqeTRv7HXg"/>
    </contour>
  </outline>
</glyph>
<glyph name="N.wide" format="2">
  <advance width="193"/>
  <outline>
    <contour>
      <point x="34" y="0" type="line" identifier="CkwYPPvJLv"/>
      <point x="36" y="0" type="line" identifier="oHTJsN7drZ"/>
      <point x="36" y="1378" type="line" identifier="wfBbYd10Pm"/>
      <point x="51" y="1378" type="line" identifier="MEnBDHq6zU"/>
      <point x="144" y="0" type="line" identifier="3Nbopwznvn"/>
      <point x="159" y="0" type="line" identifier="uKfuudIUvA"/>
      <point x="159" y="1600" type="line" identifier="XRdLFXiM4t"/>
      <point x="157" y="1600" type="line" identifier="MUSJPjCIXg"/>
      <point x="157" y="222" type="line" identifier="VILP20cFmq"/>
      <point x="143" y="222" type="line" identifier="z5b04GDwRN"/>
      <point x="52" y="1600" type="line" identifier="LL64NQ6WBE"/>
      <point x="34" y="1600" type="line" identifier="dzUaaP1sjt"/>
    </contour>
  </outline>
</glyph>
<glyph name="R.wide" format="2">
  <advance width="180"/>
  <outline>
    <contour>
      <point x="131" y="0" type="line"/>
      <point x="133" y="0" type="line"/>
      <point x="87" y="717" type="line"/>
      <point x="85" y="717" type="line"/>
    </contour>
    <contour>
      <point x="36" y="0" type="line" identifier="EG08jqU5fb"/>
      <point x="38" y="0" type="line" identifier="osRzIFK2Cu"/>
      <point x="38" y="710" type="line" identifier="hIFVovVRwe"/>
      <point x="138" y="710" type="line" identifier="Tt6D8zYZmU"/>
      <point x="138" y="1600" type="line" identifier="6xW04auDFu"/>
      <point x="36" y="1600" type="line" identifier="eETO5GBD5v"/>
    </contour>
    <contour>
      <point x="38" y="873" type="line" identifier="PIBVN1PGv1"/>
      <point x="38" y="1437" type="line" identifier="IZIZQr2gYJ"/>
      <point x="136" y="1437" type="line" identifier="2c4LCF1E1R"/>
      <point x="136" y="873" type="line" identifier="1WCnzth1GX"/>
    </contour>
  </outline>
</glyph>
<glyph name="S.wideskinny" format="2">
  <advance width="158"/>
  <outline>
    <contour>
      <point x="32" y="0" type="line" identifier="09VlJ0BjUX"/>
      <point x="94" y="0" type="line" identifier="EagWihqFM8"/>
      <point x="128" y="268" type="line"/>
      <point x="128" y="885" type="line" identifier="KfNuQA7eZe"/>
      <point x="32" y="885" type="line" identifier="At364YZFEy"/>
      <point x="32" y="1312" type="line"/>
      <point x="58" y="1446" type="line"/>
      <point x="125" y="1446" type="line" identifier="3ZUkG35meB"/>
      <point x="125" y="1600" type="line" identifier="SaF9ojRFrW"/>
      <point x="68" y="1600" type="line"/>
      <point x="30" y="1313" type="line"/>
      <point x="30" y="713" type="line" identifier="3sQ8t8BZ6b"/>
      <point x="126" y="713" type="line" identifier="yiV6OCBLHg"/>
      <point x="126" y="269" type="line"/>
      <point x="103" y="157" type="line" identifier="9kdl9SYsn8"/>
      <point x="32" y="157" type="line" identifier="yZDWuX8LLe"/>
    </contour>
  </outline>
</glyph>
<glyph name="U.alt" format="2">
  <advance width="171"/>
  <outline>
    <contour>
      <point x="135" y="1600" type="line" smooth="yes"/>
      <point x="135" y="163" type="line"/>
      <point x="33" y="163" type="line" smooth="yes"/>
      <point x="33" y="1600" type="line"/>
      <point x="31" y="1600" type="line" smooth="yes"/>
      <point x="31" y="0" type="line" smooth="yes"/>
      <point x="137" y="0" type="line" smooth="yes"/>
      <point x="137" y="1600" type="line" smooth="yes"/>
    </contour>
  </outline>
</glyph>
<glyph name="Y.alt" format="2">
  <advance width="149"/>
  <outline>
    <contour>
      <point x="52" y="0" type="line" smooth="yes"/>
      <point x="97" y="0" type="line" smooth="yes"/>
      <point x="133" y="1599" type="line" smooth="yes"/>
      <point x="131" y="1600" type="line" smooth="yes"/>
      <point x="99" y="163" type="line"/>
      <point x="51" y="163" type="line" smooth="yes"/>
      <point x="18" y="1600" type="line"/>
      <point x="16" y="1598" type="line" smooth="yes"/>
    </contour>
    <contour>
      <point x="95" y="33" type="line"/>
      <point x="86" y="-397" type="line"/>
      <point x="88" y="-398" type="line"/>
      <point x="97" y="33" type="line"/>
    </contour>
  </outline>
</glyph>
<glyph name="five.wideskinny" format="2">
  <advance width="166"/>
  <outline>
    <contour>
      <point x="34" y="0" type="line" identifier="09VlJ0BjUX"/>
      <point x="133" y="0" type="line" identifier="EagWihqFM8"/>
      <point x="133" y="881" type="line" identifier="KfNuQA7eZe"/>
      <point x="35" y="881" type="line" identifier="At364YZFEy"/>
      <point x="35" y="1437" type="line" identifier="BcuLfvaQKC"/>
      <point x="133" y="1437" type="line" identifier="3ZUkG35meB"/>
      <point x="133" y="1600" type="line" identifier="SaF9ojRFrW"/>
      <point x="33" y="1600" type="line" identifier="F4sQEYelA8"/>
      <point x="33" y="718" type="line" identifier="3sQ8t8BZ6b"/>
      <point x="131" y="718" type="line" identifier="yiV6OCBLHg"/>
      <point x="131" y="163" type="line" identifier="9kdl9SYsn8"/>
      <point x="34" y="163" type="line" identifier="yZDWuX8LLe"/>
    </contour>
  </outline>
</glyph>
<glyph name="one.narrow" format="2">
  <advance width="128"/>
  <outline>
    <contour>
      <point x="92" y="0" type="line" identifier="5nmxQXofSG"/>
      <point x="92" y="1600" type="line" identifier="4rjIeWbSbx"/>
      <point x="30" y="1600" type="line"/>
      <point x="30" y="1437" type="line"/>
      <point x="90" y="1437" type="line"/>
      <point x="90" y="0" type="line"/>
    </contour>
  </outline>
</glyph>
<glyph name="seven.alt" format="2">
  <advance width="166"/>
  <outline>
    <contour>
      <point x="48" y="1600" type="line" identifier="jiO9eX9U07"/>
      <point x="132" y="1600" type="line" identifier="wgpFs1yguc"/>
      <point x="132" y="0" type="line" identifier="d5Di3vNzni"/>
      <point x="130" y="0" type="line" identifier="46RrD1WET2"/>
      <point x="130" y="1437" type="line" identifier="zFXsE8BUYG"/>
      <point x="50" y="1437" type="line" identifier="NQmE31PUns"/>
      <point x="50" y="939" type="line" identifier="qiXxY6YhCq"/>
      <point x="48" y="939" type="line" identifier="7exNZv1XSc"/>
    </contour>
  </outline>
</glyph>
<glyph name="two.wideskinny" format="2">
  <advance width="168"/>
  <outline>
    <contour>
      <point x="28" y="0" type="line"/>
      <point x="134" y="0" type="line" identifier="pzdvPTirLJ"/>
      <point x="134" y="163" type="line"/>
      <point x="30" y="163" type="line"/>
      <point x="30" y="713" type="line"/>
      <point x="130" y="713" type="line" identifier="yyb1NCCI5w"/>
      <point x="130" y="1600" type="line" identifier="5FogYRSgkk"/>
      <point x="31" y="1600" type="line" identifier="svlFvrau4c"/>
      <point x="31" y="1437" type="line"/>
      <point x="128" y="1437" type="line"/>
      <point x="128" y="875" type="line"/>
      <point x="28" y="875" type="line" identifier="teVKnpBcVb"/>
    </contour>
  </outline>
</glyph>
